# xmcd
#
# Track frame offsets: 
#        150
#        19548
#        38961
#        57661
#        73802
#        96195
#        113044
#        133656
#        150826
#        168429
#        186114
#        205189
#        223441
#
# Disc length: 3714 seconds
#
# Revision: 0
# Processed by: cddbd v1.5.2PL0 Copyright (c) Steve Scherf et al.
# Submitted via: ExactAudioCopyFreeDBPlugin 1.0
#
DISCID=bb0e800d
DTITLE=Various Artist - Dance Planet - All Stars Super Party CD2
DYEAR=2008
DGENRE=Thai
TTITLE0=B.O.Y. Feat. Chin Chinwuth - First love first hurt
TTITLE1=Da Endorphine - Du lae kao hai dee dee - ดูแลเขาให้ดีดี
TTITLE2=Rose Sirinthip, Preeyawis - Thur tum hai chun kid tueng tae th
TTITLE2=ur - เธอทำให้ฉันคิดถึงแต่เธอ
TTITLE3=Freshen - Kon jao choo du mai yark - คนเจ้าชู้ดูไม่ยาก
TTITLE4=Chin Chinwuth - Mai mee krai hai bork ruk - ไม่มีใครให้บอกรัก
TTITLE5=Kala - 4 na tee - 4 นาที
TTITLE6=Bird Thongchai - Chuay rub tee - ช่วยรับที
TTITLE7=J Jetrin - Sawan chun jet - สวรรค์ชั้น 7
TTITLE8=Marsha - Poo chai huay huay - ผู้ชายห่วยๆ
TTITLE9=Ice Saranyu - Puan sanit kid mai sue - เพื่อนสนิทคิดไม่ซื่อ
TTITLE10=Bie The Star - Tho ma wa ruk - โทรมาว่ารัก
TTITLE11=Taktan Chollada - Mai chai fan tum tan mai dai - ไม่ใช่แฟนทำแ
TTITLE11=ทนไม่ได้
TTITLE12=Bonus Track Non Stop
EXTD=
EXTT0=
EXTT1=
EXTT2=
EXTT3=
EXTT4=
EXTT5=
EXTT6=
EXTT7=
EXTT8=
EXTT9=
EXTT10=
EXTT11=
EXTT12=
PLAYORDER=
